<?xml version="1.0" encoding="iso-8859-1"?>
<!-- Generator: Adobe Illustrator 17.0.0, SVG Export Plug-In . SVG Version: 6.00 Build 0)  -->
<!DOCTYPE svg PUBLIC "-//W3C//DTD SVG 1.1//EN" "http://www.w3.org/Graphics/SVG/1.1/DTD/svg11.dtd">
<svg version="1.1" id="&#x56FE;&#x5C42;_1" xmlns="http://www.w3.org/2000/svg" xmlns:xlink="http://www.w3.org/1999/xlink" x="0px"
	 y="0px" width="150px" height="58px" viewBox="0 0 150 58" style="enable-background:new 0 0 150 58;" xml:space="preserve">
<path style="fill-rule:evenodd;clip-rule:evenodd;fill:#FFFFFF;" d="M10.339,20.471L10.339,20.471
	c-0.015-0.081-0.031-0.162-0.048-0.244c-0.357-0.063-0.716-0.121-1.074-0.192c-1.822-0.365-2.712-1.467-2.417-2.995
	c0.272-1.411,1.495-2.074,3.297-1.792c1.392,0.217,2.82,0.306,4.172,0.671c2.987,0.805,5.451,0.057,7.971-1.705
	c4.575-3.2,9.321-6.161,14.083-9.081c3.073-1.884,6.403-3.24,10.015-3.789c7.728-1.172,15.493-1.646,23.298-1.148
	c7.259,0.463,14.389,1.508,21.031,4.765c7.591,3.723,14.603,8.311,21.095,13.711c0.487,0.403,1.145,0.681,1.769,0.828
	c5.757,1.361,11.574,2.498,17.273,4.069c5.059,1.393,9.893,3.463,14.323,6.352c1.539,1.004,2,1.997,1.62,3.481
	c-1.575-0.281-3.152-0.566-4.732-0.839c-1.451-0.251-2.634,0.466-2.904,1.742c-0.255,1.206,0.659,2.35,2.13,2.633
	c1.526,0.295,3.049,0.691,4.59,0.804c1.246,0.094,1.533,0.679,1.575,1.749c0.087,2.233,0.19,4.468,0.408,6.691
	c0.062,0.636,0.398,1.371,0.852,1.818c1.577,1.556,1.843,6.512,0.31,8.127c-0.326,0.343-0.748,0.73-1.179,0.813
	c-2.069,0.402-4.154,0.706-6.322,1.058c2.49-14.212-7.858-24.16-17.991-25.28c-5.662-0.626-10.881,0.669-15.349,4.207
	c-6.458,5.113-8.98,11.926-7.997,20.088H49.754c0.636-4.056,0.164-7.895-1.388-11.6c-1.583-3.776-4.051-6.842-7.429-9.143
	c-3.323-2.264-7.001-3.541-11.049-3.673c-5.44-0.178-10.275,1.449-14.393,4.986c-5.63,4.835-7.85,11.095-7.353,18.528
	c-1.287-0.149-2.434-0.299-3.588-0.412c-2.946-0.285-4.8-1.123-4.515-5.025c0.036-0.484-0.13-1.025,0.034-1.448
	c0.362-0.944,0.682-2.04,1.382-2.679c0.694-0.633,0.981-1.169,0.943-2.05c-0.056-1.262-0.023-2.527-0.025-3.791
	c-0.002-2.464-0.001-4.929-0.001-7.573c2.102,0,4.038,0.02,5.973-0.006c1.664-0.021,2.814-1.038,2.754-2.377
	c-0.057-1.29-1.147-2.135-2.799-2.144c-1.935-0.009-3.871-0.002-5.933-0.002c0-0.637-0.008-1.109,0.001-1.583
	c0.062-3.412,0.451-3.921,3.665-4.995C7.481,21.548,8.905,20.994,10.339,20.471L10.339,20.471 M59.636,7.524L59.636,7.524
	c0.383,5.236,0.763,10.455,1.156,15.824c14.687,0.765,29.275,2.52,44.002-0.81C91.636,11.344,76.977,5.579,59.636,7.524
	L59.636,7.524 M54.769,7.946L54.769,7.946c-8.385,1.458-14.255,6.308-19.09,13.238c6.816,0.574,13.413,1.13,20.193,1.701
	C55.502,17.874,55.136,12.921,54.769,7.946L54.769,7.946 M63.067,33.119L63.067,33.119c0.924,0,1.849,0.046,2.771-0.01
	c1.414-0.082,2.375-1.049,2.342-2.274c-0.034-1.247-0.992-2.187-2.41-2.223c-1.845-0.047-3.694-0.029-5.54,0.003
	c-1.347,0.022-2.337,0.881-2.439,2.038c-0.103,1.147,0.889,2.25,2.216,2.457c0.097,0.017,0.193,0.022,0.29,0.022
	c0.924,0.001,1.847,0.001,2.77,0.001V33.119L63.067,33.119 M63.067,33.119"/>
</svg>
