<svg version="1.1" id="el_vIS8NTeDn" xmlns="http://www.w3.org/2000/svg" xmlns:xlink="http://www.w3.org/1999/xlink" x="0px" y="0px" viewBox="0 0 150 71" style="enable-background:new 0 0 150 71.9;" xml:space="preserve"><style>@-webkit-keyframes kf_el_E9-85wVIib_an_qsyDyZxaS{0%{-webkit-transform: translate(121px, 54.19999885559082px) rotate(0deg) translate(-121px, -54.19999885559082px);transform: translate(121px, 54.19999885559082px) rotate(0deg) translate(-121px, -54.19999885559082px);}100%{-webkit-transform: translate(121px, 54.19999885559082px) rotate(720deg) translate(-121px, -54.19999885559082px);transform: translate(121px, 54.19999885559082px) rotate(720deg) translate(-121px, -54.19999885559082px);}}@keyframes kf_el_E9-85wVIib_an_qsyDyZxaS{0%{-webkit-transform: translate(121px, 54.19999885559082px) rotate(0deg) translate(-121px, -54.19999885559082px);transform: translate(121px, 54.19999885559082px) rotate(0deg) translate(-121px, -54.19999885559082px);}100%{-webkit-transform: translate(121px, 54.19999885559082px) rotate(720deg) translate(-121px, -54.19999885559082px);transform: translate(121px, 54.19999885559082px) rotate(720deg) translate(-121px, -54.19999885559082px);}}@-webkit-keyframes kf_el_PtjKtp1nB1_an_Hu3NNWuMR{0%{-webkit-transform: translate(29.099998474121094px, 54.19999885559082px) rotate(0deg) translate(-29.099998474121094px, -54.19999885559082px);transform: translate(29.099998474121094px, 54.19999885559082px) rotate(0deg) translate(-29.099998474121094px, -54.19999885559082px);}100%{-webkit-transform: translate(29.099998474121094px, 54.19999885559082px) rotate(720deg) translate(-29.099998474121094px, -54.19999885559082px);transform: translate(29.099998474121094px, 54.19999885559082px) rotate(720deg) translate(-29.099998474121094px, -54.19999885559082px);}}@keyframes kf_el_PtjKtp1nB1_an_Hu3NNWuMR{0%{-webkit-transform: translate(29.099998474121094px, 54.19999885559082px) rotate(0deg) translate(-29.099998474121094px, -54.19999885559082px);transform: translate(29.099998474121094px, 54.19999885559082px) rotate(0deg) translate(-29.099998474121094px, -54.19999885559082px);}100%{-webkit-transform: translate(29.099998474121094px, 54.19999885559082px) rotate(720deg) translate(-29.099998474121094px, -54.19999885559082px);transform: translate(29.099998474121094px, 54.19999885559082px) rotate(720deg) translate(-29.099998474121094px, -54.19999885559082px);}}#el_vIS8NTeDn *{-webkit-animation-duration: 3s;animation-duration: 3s;-webkit-animation-iteration-count: 1;animation-iteration-count: 1;-webkit-animation-timing-function: cubic-bezier(0, 0, 1, 1);animation-timing-function: cubic-bezier(0, 0, 1, 1);}#el_cVNnF1fwXa{fill: #FFFFFF;}#el_PtjKtp1nB1{fill: #FFFFFF;}#el_E9-85wVIib{fill: #FFFFFF;}#el_PtjKtp1nB1_an_G3LCQ9UgA{-webkit-transform: translate(12.099998474121094px, 37.20000076293945px) scale(1, 1) translate(-12.099998474121094px, -37.20000076293945px);transform: translate(12.099998474121094px, 37.20000076293945px) scale(1, 1) translate(-12.099998474121094px, -37.20000076293945px);}#el_PtjKtp1nB1_an_Hu3NNWuMR{-webkit-animation-fill-mode: backwards;animation-fill-mode: backwards;-webkit-transform: translate(29.099998474121094px, 54.19999885559082px) rotate(0deg) translate(-29.099998474121094px, -54.19999885559082px);transform: translate(29.099998474121094px, 54.19999885559082px) rotate(0deg) translate(-29.099998474121094px, -54.19999885559082px);-webkit-animation-name: kf_el_PtjKtp1nB1_an_Hu3NNWuMR;animation-name: kf_el_PtjKtp1nB1_an_Hu3NNWuMR;-webkit-animation-timing-function: cubic-bezier(0, 0, 1, 1);animation-timing-function: cubic-bezier(0, 0, 1, 1);}#el_E9-85wVIib_an_qsyDyZxaS{-webkit-animation-fill-mode: backwards;animation-fill-mode: backwards;-webkit-transform: translate(121px, 54.19999885559082px) rotate(0deg) translate(-121px, -54.19999885559082px);transform: translate(121px, 54.19999885559082px) rotate(0deg) translate(-121px, -54.19999885559082px);-webkit-animation-name: kf_el_E9-85wVIib_an_qsyDyZxaS;animation-name: kf_el_E9-85wVIib_an_qsyDyZxaS;-webkit-animation-timing-function: cubic-bezier(0, 0, 1, 1);animation-timing-function: cubic-bezier(0, 0, 1, 1);}</style>

<path d="M10.3,20.5L10.3,20.5c0-0.1,0-0.2,0-0.2c-0.4-0.1-0.7-0.1-1.1-0.2c-1.8-0.4-2.7-1.5-2.4-3
	c0.3-1.4,1.5-2.1,3.3-1.8c1.4,0.2,2.8,0.3,4.2,0.7c3,0.8,5.5,0.1,8-1.7c4.6-3.2,9.3-6.2,14.1-9.1c3.1-1.9,6.4-3.2,10-3.8
	c7.7-1.2,15.5-1.6,23.3-1.1C76.9,0.7,84,1.7,90.7,5c7.6,3.7,14.6,8.3,21.1,13.7c0.5,0.4,1.1,0.7,1.8,0.8c5.8,1.4,11.6,2.5,17.3,4.1
	c5.1,1.4,9.9,3.5,14.3,6.4c1.5,1,2,2,1.6,3.5c-1.6-0.3-3.2-0.6-4.7-0.8c-1.5-0.3-2.6,0.5-2.9,1.7c-0.3,1.2,0.7,2.3,2.1,2.6
	c1.5,0.3,3,0.7,4.6,0.8c1.2,0.1,1.5,0.7,1.6,1.7c0.1,2.2,0.2,4.5,0.4,6.7c0.1,0.6,0.4,1.4,0.9,1.8c1.6,1.6,1.8,6.5,0.3,8.1
	c-0.3,0.3-0.7,0.7-1.2,0.8c-2.1,0.4-4.2,0.7-6.3,1.1c2.5-14.2-7.9-24.2-18-25.3c-5.7-0.6-10.9,0.7-15.3,4.2c-6.5,5.1-9,11.9-8,20.1
	H49.8c0.6-4.1,0.2-7.9-1.4-11.6c-1.6-3.8-4.1-6.8-7.4-9.1c-3.3-2.3-7-3.5-11-3.7c-5.4-0.2-10.3,1.4-14.4,5
	c-5.6,4.8-7.8,11.1-7.4,18.5c-1.3-0.1-2.4-0.3-3.6-0.4c-2.9-0.3-4.8-1.1-4.5-5c0-0.5-0.1-1,0-1.4c0.4-0.9,0.7-2,1.4-2.7
	c0.7-0.6,1-1.2,0.9-2c-0.1-1.3,0-2.5,0-3.8c0-2.5,0-4.9,0-7.6c2.1,0,4,0,6,0c1.7,0,2.8-1,2.8-2.4c-0.1-1.3-1.1-2.1-2.8-2.1
	c-1.9,0-3.9,0-5.9,0c0-0.6,0-1.1,0-1.6c0.1-3.4,0.5-3.9,3.7-5C7.5,21.5,8.9,21,10.3,20.5L10.3,20.5 M59.6,7.5L59.6,7.5
	c0.4,5.2,0.8,10.5,1.2,15.8c14.7,0.8,29.3,2.5,44-0.8C91.6,11.3,77,5.6,59.6,7.5L59.6,7.5 M54.8,7.9L54.8,7.9
	c-8.4,1.5-14.3,6.3-19.1,13.2c6.8,0.6,13.4,1.1,20.2,1.7C55.5,17.9,55.1,12.9,54.8,7.9L54.8,7.9 M63.1,33.1L63.1,33.1
	c0.9,0,1.8,0,2.8,0c1.4-0.1,2.4-1,2.3-2.3c0-1.2-1-2.2-2.4-2.2c-1.8,0-3.7,0-5.5,0c-1.3,0-2.3,0.9-2.4,2c-0.1,1.1,0.9,2.2,2.2,2.5
	c0.1,0,0.2,0,0.3,0C61.2,33.1,62.1,33.1,63.1,33.1L63.1,33.1L63.1,33.1" id="el_cVNnF1fwXa"/>
<g id="el_PtjKtp1nB1_an_Hu3NNWuMR" data-animator-group="true" data-animator-type="1"><path d="M41.1,42.2c-3.1-3.1-7.3-5-12-5s-8.9,1.9-12,5c-3.1,3.1-5,7.3-5,12c0,4.7,1.9,8.9,5,12c3.1,3.1,7.3,5,12,5
	c4.7,0,8.9-1.9,12-5c3.1-3.1,5-7.3,5-12C46.1,49.5,44.2,45.2,41.1,42.2L41.1,42.2z M38.7,63.7c-2.4,2.4-5.8,4-9.6,4
	c-3.7,0-7.1-1.5-9.6-4c-2.4-2.4-4-5.8-4-9.6c0-3.7,1.5-7.1,4-9.6c2.4-2.4,5.8-4,9.6-4c3.7,0,7.1,1.5,9.6,4c2.4,2.4,4,5.8,4,9.6
	C42.6,57.9,41.1,61.3,38.7,63.7L38.7,63.7z M24.7,55.9h-7.4c0.4,2.6,1.6,5,3.4,6.8c0.4,0.4,0.8,0.8,1.2,1.1l3.6-6.4
	C25.2,56.9,24.9,56.4,24.7,55.9L24.7,55.9z M29.2,59c-0.2,0-0.5,0-0.7-0.1l-3.6,6.4c3.1,1.2,6.7,1,9.7-0.5l-4.2-6
	C30,59,29.6,59,29.2,59L29.2,59z M25.5,54c0,0.4,0.3,0.8,0.8,0.8c0.4,0,0.8-0.3,0.8-0.8c0-0.4-0.3-0.8-0.8-0.8
	C25.8,53.2,25.5,53.6,25.5,54L25.5,54z M28.3,56.1c-0.4-0.1-0.8,0.1-1,0.5c-0.1,0.4,0.1,0.9,0.5,1c0.4,0.1,0.8-0.1,1-0.5
	C28.9,56.7,28.7,56.2,28.3,56.1L28.3,56.1z M31.8,55.2c-0.4-0.2-0.8-0.2-1.1,0.2c-0.2,0.4-0.1,0.8,0.2,1.1c0.4,0.2,0.8,0.1,1.1-0.2
	C32.3,55.9,32.2,55.4,31.8,55.2L31.8,55.2z M32.2,52.3c-0.2-0.4-0.7-0.5-1.1-0.2c-0.4,0.2-0.5,0.7-0.2,1.1c0.2,0.4,0.7,0.5,1.1,0.2
	C32.3,53.2,32.4,52.7,32.2,52.3L32.2,52.3z M29.3,51.2c-0.1-0.4-0.5-0.7-0.9-0.6c-0.4,0.1-0.7,0.5-0.6,0.9c0.1,0.4,0.5,0.7,0.9,0.6
	C29.1,52,29.4,51.6,29.3,51.2L29.3,51.2z M33.1,57l4.2,6c0.1-0.1,0.2-0.2,0.3-0.3c1.8-1.8,3-4.2,3.4-6.8h-7.4
	C33.5,56.3,33.3,56.6,33.1,57L33.1,57z M33.7,52.6H41c-0.4-2.6-1.6-5-3.4-6.8c-0.4-0.4-0.8-0.8-1.2-1.1l-3.6,6.4
	C33.2,51.6,33.5,52.1,33.7,52.6L33.7,52.6z M29.2,49.5c0.2,0,0.5,0,0.7,0.1l3.6-6.4c-1.3-0.5-2.8-0.8-4.3-0.8c-2,0-3.8,0.5-5.4,1.3
	l4.2,6C28.4,49.5,28.8,49.5,29.2,49.5L29.2,49.5z M25.3,51.5l-4.2-6c-0.1,0.1-0.2,0.2-0.3,0.3c-1.8,1.8-3,4.2-3.4,6.8h7.4
	C24.9,52.2,25,51.9,25.3,51.5L25.3,51.5z" id="el_PtjKtp1nB1"/></g>
<g id="el_E9-85wVIib_an_qsyDyZxaS" data-animator-group="true" data-animator-type="1"><path d="M133,42.2c-3.1-3.1-7.3-5-12-5s-8.9,1.9-12,5c-3.1,3.1-5,7.3-5,12c0,4.7,1.9,8.9,5,12c3.1,3.1,7.3,5,12,5
	c4.7,0,8.9-1.9,12-5c3.1-3.1,5-7.3,5-12C138,49.5,136.1,45.2,133,42.2L133,42.2z M130.6,63.7c-2.4,2.4-5.8,4-9.6,4
	c-3.7,0-7.1-1.5-9.6-4c-2.4-2.4-4-5.8-4-9.6c0-3.7,1.5-7.1,4-9.6c2.4-2.4,5.8-4,9.6-4c3.7,0,7.1,1.5,9.6,4c2.4,2.4,4,5.8,4,9.6
	C134.5,57.9,133,61.3,130.6,63.7L130.6,63.7z M116.6,55.9h-7.4c0.4,2.6,1.6,5,3.4,6.8c0.4,0.4,0.8,0.8,1.2,1.1l3.6-6.4
	C117.1,56.9,116.8,56.4,116.6,55.9L116.6,55.9z M121.1,59c-0.2,0-0.5,0-0.7-0.1l-3.6,6.4c3.1,1.2,6.7,1,9.7-0.5l-4.2-6
	C121.9,59,121.5,59,121.1,59L121.1,59z M117.4,54c0,0.4,0.3,0.8,0.8,0.8c0.4,0,0.8-0.3,0.8-0.8c0-0.4-0.3-0.8-0.8-0.8
	C117.8,53.2,117.4,53.6,117.4,54L117.4,54z M120.2,56.1c-0.4-0.1-0.8,0.1-1,0.5c-0.1,0.4,0.1,0.9,0.5,1c0.4,0.1,0.8-0.1,1-0.5
	C120.9,56.7,120.6,56.2,120.2,56.1L120.2,56.1z M123.7,55.2c-0.4-0.2-0.8-0.2-1.1,0.2c-0.2,0.4-0.1,0.8,0.2,1.1
	c0.4,0.2,0.8,0.1,1.1-0.2C124.2,55.9,124.1,55.4,123.7,55.2L123.7,55.2z M124.1,52.3c-0.2-0.4-0.7-0.5-1.1-0.2
	c-0.4,0.2-0.5,0.7-0.2,1.1c0.2,0.4,0.7,0.5,1.1,0.2C124.2,53.2,124.3,52.7,124.1,52.3L124.1,52.3z M121.2,51.2
	c-0.1-0.4-0.5-0.7-0.9-0.6c-0.4,0.1-0.7,0.5-0.6,0.9c0.1,0.4,0.5,0.7,0.9,0.6C121.1,52,121.3,51.6,121.2,51.2L121.2,51.2z M125,57
	l4.2,6c0.1-0.1,0.2-0.2,0.3-0.3c1.8-1.8,3-4.2,3.4-6.8h-7.4C125.4,56.3,125.2,56.6,125,57L125,57z M125.6,52.6h7.4
	c-0.4-2.6-1.6-5-3.4-6.8c-0.4-0.4-0.8-0.8-1.2-1.1l-3.6,6.4C125.1,51.6,125.4,52.1,125.6,52.6L125.6,52.6z M121.1,49.5
	c0.2,0,0.5,0,0.7,0.1l3.6-6.4c-1.3-0.5-2.8-0.8-4.3-0.8c-2,0-3.8,0.5-5.4,1.3l4.2,6C120.3,49.5,120.7,49.5,121.1,49.5L121.1,49.5z
	 M117.2,51.5l-4.2-6c-0.1,0.1-0.2,0.2-0.3,0.3c-1.8,1.8-3,4.2-3.4,6.8h7.4C116.8,52.2,117,51.9,117.2,51.5L117.2,51.5z" id="el_E9-85wVIib"/></g>
</svg>