<?xml version="1.0" encoding="iso-8859-1"?>
<!-- Generator: Adobe Illustrator 17.0.0, SVG Export Plug-In . SVG Version: 6.00 Build 0)  -->
<!DOCTYPE svg PUBLIC "-//W3C//DTD SVG 1.1//EN" "http://www.w3.org/Graphics/SVG/1.1/DTD/svg11.dtd">
<svg version="1.1" id="&#x56FE;&#x5C42;_1" xmlns="http://www.w3.org/2000/svg" xmlns:xlink="http://www.w3.org/1999/xlink" x="0px"
	 y="0px" width="34px" height="34px" viewBox="0 0 34 34" style="enable-background:new 0 0 34 34;" xml:space="preserve">
<path style="fill-rule:evenodd;clip-rule:evenodd;fill:#FFFFFF;" d="M29.02,4.976C25.944,1.9,21.694-0.003,17-0.003
	c-4.694,0-8.944,1.903-12.02,4.978C1.904,8.051,0.001,12.303,0.001,17c0,4.694,1.903,8.945,4.979,12.021
	c3.077,3.076,7.327,4.982,12.02,4.982c4.694,0,8.944-1.903,12.02-4.982c3.077-3.076,4.979-7.327,4.979-12.021
	C33.999,12.303,32.097,8.051,29.02,4.976L29.02,4.976z M26.561,26.562c-2.447,2.449-5.827,3.963-9.561,3.963
	c-3.733,0-7.115-1.514-9.562-3.963C4.991,24.116,3.477,20.732,3.477,17c0-3.736,1.514-7.116,3.961-9.565
	c2.447-2.446,5.828-3.96,9.562-3.96c3.735,0,7.115,1.514,9.561,3.96c2.447,2.449,3.961,5.83,3.961,9.565
	C30.522,20.732,29.008,24.116,26.561,26.562L26.561,26.562z M12.617,18.732H5.259c0.364,2.636,1.59,4.999,3.384,6.794
	c0.389,0.389,0.805,0.75,1.244,1.082l3.583-6.429C13.106,19.754,12.815,19.265,12.617,18.732L12.617,18.732z M17.088,21.845
	c-0.249,0-0.494-0.02-0.733-0.057l-3.583,6.433c3.143,1.219,6.727,1.038,9.732-0.493l-4.213-6.037
	C17.906,21.791,17.504,21.845,17.088,21.845L17.088,21.845z M13.372,16.832c-0.009,0.429,0.331,0.784,0.76,0.794
	c0.429,0.007,0.785-0.332,0.794-0.761c0.009-0.429-0.331-0.784-0.76-0.794C13.738,16.062,13.382,16.4,13.372,16.832L13.372,16.832z
	 M16.224,18.903c-0.405-0.144-0.849,0.067-0.993,0.473c-0.144,0.405,0.068,0.851,0.472,0.995c0.404,0.141,0.849-0.07,0.993-0.472
	C16.84,19.493,16.628,19.047,16.224,18.903L16.224,18.903z M19.728,18.005c-0.355-0.241-0.839-0.151-1.081,0.205
	c-0.241,0.355-0.149,0.841,0.205,1.082c0.355,0.241,0.838,0.147,1.08-0.208C20.174,18.732,20.083,18.246,19.728,18.005
	L19.728,18.005z M20.093,15.134c-0.228-0.365-0.708-0.476-1.071-0.248c-0.364,0.228-0.475,0.707-0.247,1.072
	c0.228,0.362,0.707,0.472,1.071,0.244C20.211,15.978,20.32,15.496,20.093,15.134L20.093,15.134z M17.219,14.029
	c-0.091-0.419-0.504-0.684-0.924-0.593c-0.419,0.09-0.686,0.506-0.595,0.925c0.09,0.419,0.504,0.684,0.924,0.593
	C17.043,14.863,17.31,14.451,17.219,14.029L17.219,14.029z M20.999,19.801l4.214,6.034c0.108-0.1,0.214-0.204,0.319-0.308
	c1.795-1.796,3.019-4.158,3.385-6.794h-7.36C21.416,19.114,21.229,19.469,20.999,19.801L20.999,19.801z M21.557,15.429h7.36
	c-0.365-2.64-1.59-5.002-3.385-6.794c-0.388-0.392-0.805-0.754-1.243-1.085l-3.583,6.429C21.07,14.404,21.36,14.893,21.557,15.429
	L21.557,15.429z M17.088,12.313c0.249,0,0.493,0.02,0.732,0.057l3.584-6.433c-1.338-0.519-2.794-0.804-4.315-0.804
	c-1.95,0-3.792,0.469-5.418,1.297l4.213,6.037C16.268,12.367,16.672,12.313,17.088,12.313L17.088,12.313z M13.174,14.36L8.962,8.326
	c-0.109,0.1-0.215,0.201-0.32,0.308c-1.794,1.793-3.02,4.154-3.384,6.794h7.358C12.758,15.047,12.947,14.688,13.174,14.36
	L13.174,14.36z"/>
</svg>
